<svg xmlns="http://www.w3.org/2000/svg" viewBox="0 0 200 200" width="200" height="200">
  <g stroke="#1C3A22" stroke-width="2.5" stroke-linecap="round" stroke-linejoin="round">
    <!-- Tail -->
    <path d="M 160 100 Q 166 128 163 154" fill="none" />
    <path d="M 163 154 Q 160 166 166 170 Q 159 165 163 154 Z" fill="#1C3A22" stroke="none" />

    <!-- Back Legs -->
    <path d="M 144 118 L 146 172 L 138 172 L 136 118 Z" fill="#E5E0D5" />
    <path d="M 110 118 L 108 172 L 100 172 L 103 118 Z" fill="#E5E0D5" />
    <rect x="138" y="165" width="8" height="7" fill="#1C3A22" stroke="none" />
    <rect x="100" y="165" width="8" height="7" fill="#1C3A22" stroke="none" />

    <!-- Front Legs -->
    <path d="M 152 115 L 156 172 L 146 172 L 142 115 Z" fill="#F6F5F0" />
    <path d="M 102 115 L 100 172 L 92 172 L 94 115 Z" fill="#F6F5F0" />
    <rect x="146" y="165" width="10" height="7" fill="#1C3A22" stroke="none" />
    <rect x="92" y="165" width="8" height="7" fill="#1C3A22" stroke="none" />

    <!-- Dewlap -->
    <path d="M 50 96 Q 58 126 80 118 Z" fill="#EBE6DA" />

    <!-- Body & Thoracic Hump -->
    <path d="M 74 78 Q 88 60 104 74 Q 132 78 155 82 Q 166 88 160 114 Q 152 126 132 124 Q 98 126 74 120 Q 58 116 50 100 Q 56 88 74 78 Z" fill="#F6F5F0" />
    <!-- Hump shading -->
    <path d="M 82 76 Q 94 62 104 74 Z" fill="#E5E0D5" />

    <!-- Head & Neck -->
    <path d="M 54 98 L 66 82 L 54 58 L 34 74 L 46 98 Z" fill="#F6F5F0" />
    <!-- Muzzle -->
    <path d="M 34 74 L 26 80 Q 30 88 38 84 Z" fill="#1C3A22" />

    <!-- Ears -->
    <path d="M 56 60 Q 66 58 68 64 Q 60 68 54 63 Z" fill="#E5E0D5" />
    <path d="M 46 60 Q 36 58 34 64 Q 42 68 48 63 Z" fill="#E5E0D5" />

    <!-- Lyre Horns -->
    <path d="M 50 58 C 42 40 24 34 26 18 C 32 28 44 38 52 54 Z" fill="#F6F5F0" />
    <path d="M 56 58 C 64 40 82 34 80 18 C 74 28 62 38 54 54 Z" fill="#F6F5F0" />
    <path d="M 26 18 C 27 14 29 18 26 18 Z" fill="#1C3A22" stroke="none" />
    <path d="M 80 18 C 79 14 77 18 80 18 Z" fill="#1C3A22" stroke="none" />

    <!-- Eye -->
    <circle cx="46" cy="70" r="2.5" fill="#1C3A22" stroke="none" />
  </g>
</svg>